<?xml version="1.0" encoding="UTF-8" standalone="no"?>
<svg xmlns:xlink="http://www.w3.org/1999/xlink" height="248.0px" width="204.65px" xmlns="http://www.w3.org/2000/svg">
  <g transform="matrix(1.0, 0.0, 0.0, 1.0, 0.0, 0.0)">
    <use data-characterId="2" height="248.0" transform="matrix(1.0, 0.0, 0.0, 1.0, 0.0, 0.0)" width="204.65" xlink:href="#shape0"/>
  </g>
  <defs>
    <g id="shape0" transform="matrix(1.0, 0.0, 0.0, 1.0, 0.0, 0.0)">
      <path d="M164.5 146.65 Q165.1 144.85 166.05 143.3 L166.35 142.75 166.9 141.95 Q169.75 138.1 173.55 138.1 L175.15 138.3 176.35 138.65 Q177.55 139.15 178.6 140.2 L179.85 141.55 180.65 142.65 180.7 142.75 180.75 142.85 Q183.7 147.45 183.7 154.0 L183.7 155.05 183.55 157.05 183.35 158.5 182.95 160.25 182.85 160.5 Q182.1 163.05 180.7 165.25 178.85 168.15 176.55 169.25 L176.05 169.45 173.55 169.9 Q171.4 169.9 169.55 168.65 167.8 167.5 166.35 165.25 165.1 163.25 164.4 160.95 L163.7 157.95 163.55 156.9 163.4 154.0 Q163.4 151.45 163.85 149.25 164.0 148.25 164.3 147.35 L164.5 146.65 M197.4 150.35 Q200.4 150.35 202.5 153.95 204.4 157.15 204.65 161.55 L204.65 162.65 204.65 163.85 Q204.5 166.05 203.95 168.0 L202.95 170.6 202.5 171.35 201.0 173.35 Q199.4 174.95 197.4 174.95 194.4 174.95 192.25 171.35 190.8 168.85 190.35 165.65 L190.25 164.4 190.15 162.65 190.25 160.6 190.3 160.3 Q190.65 156.7 192.25 153.95 L192.9 153.0 Q194.8 150.35 197.4 150.35 M112.1 0.0 Q117.2 0.0 120.8 3.8 124.4 7.6 124.4 13.0 124.4 18.4 120.8 22.2 119.25 23.8 117.45 24.75 115.0 26.0 112.1 26.0 109.35 26.0 107.05 24.9 105.05 23.95 103.4 22.2 99.8 18.4 99.8 13.0 99.8 10.25 100.75 7.95 101.65 5.65 103.4 3.8 104.9 2.2 106.7 1.3 109.15 0.0 112.1 0.0 M33.25 37.45 L32.3 38.85 Q23.8 51.9 23.8 64.3 23.8 66.95 24.75 70.85 L25.45 73.5 24.55 75.55 23.3 78.4 Q22.7 77.0 21.15 71.1 L19.45 64.1 Q19.45 48.65 28.7 36.95 L31.55 33.7 Q39.2 25.35 55.1 13.9 40.9 26.3 33.25 37.45 M78.7 136.35 L81.1 135.85 84.15 135.15 91.3 132.85 95.55 131.2 100.6 128.9 Q105.75 126.35 109.55 123.35 L112.5 120.8 110.0 125.35 Q106.35 131.1 100.3 135.45 L100.1 135.6 Q96.65 138.05 93.4 139.6 89.65 141.3 86.15 141.85 L83.7 142.1 82.9 142.1 81.3 141.85 Q78.9 141.25 74.4 139.1 L72.65 138.25 72.0 137.9 71.85 137.8 71.45 137.6 70.85 137.25 71.0 137.0 72.35 137.0 73.6 136.95 78.7 136.35 M19.8 174.2 L26.65 194.35 28.2 199.25 27.05 199.55 Q24.7 195.85 22.6 191.4 18.15 181.8 14.8 168.55 L14.55 167.5 14.3 167.1 0.0 145.25 7.35 152.45 14.45 159.1 14.6 159.45 19.8 174.2 M77.75 178.5 L79.2 178.65 Q81.75 179.25 83.65 181.9 L84.65 183.55 84.85 183.9 85.15 184.65 Q85.85 186.45 86.05 188.6 L86.1 190.1 Q86.1 194.15 84.4 197.2 L83.65 198.3 Q81.2 201.7 77.75 201.7 L75.2 201.2 Q73.35 200.35 71.85 198.3 69.4 194.9 69.4 190.1 69.4 185.3 71.85 181.9 74.1 178.75 77.25 178.55 L77.75 178.5 M146.0 119.75 Q148.35 123.0 148.85 127.35 L149.0 128.85 149.0 129.75 149.0 129.9 Q149.0 132.4 148.4 134.6 147.7 137.25 146.2 139.5 L146.05 139.65 146.0 139.7 145.4 140.5 143.1 142.6 141.9 143.25 141.5 143.4 138.85 143.85 Q136.35 143.85 134.3 142.4 132.85 141.4 131.65 139.7 129.9 137.3 129.2 134.3 128.75 132.35 128.7 130.2 L128.7 129.75 Q128.7 127.05 129.35 124.7 L129.45 124.35 129.9 123.05 130.8 121.15 Q131.05 120.6 131.45 120.1 L131.65 119.75 132.75 118.45 Q134.7 116.35 137.15 115.85 L138.5 115.65 138.85 115.65 Q142.7 115.65 145.55 119.15 L146.0 119.75 M151.45 198.6 L151.5 198.65 Q153.25 200.5 153.25 203.2 153.25 205.9 151.45 207.8 L150.0 208.95 148.15 209.65 147.1 209.7 Q144.55 209.7 142.75 207.8 141.35 206.35 141.05 204.45 L140.95 203.2 Q140.95 200.75 142.4 199.0 L142.75 198.6 Q144.55 196.7 147.1 196.7 149.45 196.7 151.15 198.3 L151.45 198.6 M128.6 236.5 L128.7 238.25 Q128.7 242.3 126.05 245.15 123.4 248.0 119.65 248.0 117.45 248.0 115.65 247.05 L113.25 245.15 Q110.6 242.3 110.6 238.25 110.6 235.05 112.3 232.6 L113.25 231.35 Q115.9 228.5 119.65 228.5 122.4 228.5 124.6 230.05 L126.05 231.35 Q128.1 233.55 128.6 236.5" fill="#ffffff" fill-rule="evenodd" stroke="none"/>
    </g>
  </defs>
</svg>
