<?xml version="1.0" encoding="UTF-8" standalone="no"?>
<svg xmlns:xlink="http://www.w3.org/1999/xlink" height="31.85px" width="32.75px" xmlns="http://www.w3.org/2000/svg">
  <g transform="matrix(1.0, 0.0, 0.0, 1.0, 1.85, 2.8)">
    <use data-characterId="2" height="31.85" transform="matrix(1.0, 0.0, 0.0, 1.0, -1.85, -2.8)" width="32.75" xlink:href="#sprite0"/>
  </g>
  <defs>
    <g id="sprite0" transform="matrix(1.0, 0.0, 0.0, 1.0, 1.85, 2.8)">
      <use data-characterId="1" height="31.85" transform="matrix(1.0, 0.0, 0.0, 1.0, -1.85, -2.8)" width="32.75" xlink:href="#shape0"/>
    </g>
    <g id="shape0" transform="matrix(1.0, 0.0, 0.0, 1.0, 1.85, 2.8)">
      <path d="M21.1 3.4 L20.25 2.85 21.1 3.3 21.1 3.4 M21.3 3.6 L21.75 3.85 22.0 4.25 22.15 4.15 22.15 4.2 22.1 4.25 22.25 4.25 22.25 4.2 22.3 4.2 22.25 4.25 22.3 4.45 22.4 4.45 22.55 4.45 22.55 4.5 22.4 4.45 22.55 4.7 22.9 4.9 23.05 5.0 22.85 5.1 23.25 5.25 23.3 5.6 23.75 5.75 23.65 5.75 23.6 5.65 Q23.45 5.8 23.75 6.05 L24.15 6.55 24.35 6.95 24.75 7.6 24.9 8.1 25.05 8.0 25.0 8.2 25.1 8.15 25.1 8.35 Q25.3 8.5 25.1 8.65 L25.3 8.65 25.35 8.9 25.4 8.95 25.3 9.05 25.55 9.65 25.45 9.4 Q25.3 9.65 25.55 9.9 25.85 10.05 25.75 10.3 L25.95 11.95 26.0 12.8 25.9 14.1 29.25 13.25 29.4 13.1 29.3 11.6 29.2 11.65 29.2 11.5 29.25 11.1 28.85 9.45 28.8 9.5 28.85 9.65 28.8 9.65 Q28.75 9.4 28.85 9.2 L28.75 9.05 28.7 9.05 28.75 9.35 27.7 6.8 27.6 6.6 27.2 5.8 26.0 4.2 26.0 4.15 25.85 4.0 24.15 2.2 23.8 1.85 21.45 0.25 Q19.7 -0.65 17.75 -1.0 L14.55 -1.3 11.35 -1.0 Q9.35 -0.65 7.65 0.25 L5.3 1.85 Q5.0 1.95 4.95 2.2 3.95 3.0 3.25 4.0 L3.05 4.15 3.05 4.2 1.85 5.8 1.45 6.6 1.35 6.8 Q0.7 8.0 0.3 9.35 L0.35 9.05 0.3 9.05 0.2 9.2 0.25 9.65 0.2 9.65 0.25 9.5 0.2 9.45 -0.2 11.1 -0.15 11.5 -0.15 11.65 -0.25 11.6 -0.35 13.1 -0.2 13.25 3.2 14.1 3.05 12.8 3.15 11.95 3.35 10.3 Q3.25 10.05 3.5 9.9 3.8 9.65 3.6 9.4 L3.5 9.65 Q3.5 9.3 3.8 9.05 L3.7 8.95 3.75 8.9 3.8 8.65 3.95 8.65 Q3.8 8.5 3.95 8.35 L3.95 8.15 4.05 8.2 4.0 8.0 4.15 8.1 4.35 7.6 Q4.45 7.25 4.7 6.95 L4.95 6.55 5.35 6.05 5.5 5.65 5.45 5.75 5.35 5.75 5.75 5.6 5.85 5.25 6.2 5.1 6.05 5.0 6.15 4.9 Q6.4 4.9 6.55 4.7 L6.65 4.45 6.55 4.5 6.55 4.45 6.65 4.45 6.75 4.45 6.8 4.25 6.75 4.2 6.8 4.2 6.8 4.25 7.0 4.25 6.95 4.2 6.95 4.15 7.1 4.25 7.3 3.85 Q7.55 3.6 7.75 3.6 L8.05 3.4 8.6 3.15 9.3 2.65 8.9 2.75 8.95 2.65 9.5 2.45 9.3 2.55 9.35 2.6 9.7 2.45 10.55 2.2 10.6 2.1 11.85 1.8 12.2 1.7 12.6 1.7 13.15 1.55 13.3 1.55 14.55 1.45 15.75 1.55 15.9 1.55 16.45 1.7 16.85 1.7 17.25 1.8 18.45 2.1 18.5 2.2 19.4 2.45 19.7 2.6 19.75 2.55 19.55 2.45 20.1 2.65 20.15 2.75 19.75 2.65 20.5 3.15 21.05 3.4 21.3 3.6 M21.7 3.85 L21.5 3.65 21.65 3.8 21.7 3.85 M21.05 4.55 L21.75 5.15 22.15 5.65 22.75 6.3 22.7 6.55 22.85 6.55 22.85 6.65 23.15 7.05 22.7 6.55 21.5 5.2 20.6 4.45 20.15 4.15 Q17.9 2.55 15.05 2.4 L14.55 2.4 14.05 2.4 Q11.15 2.55 8.9 4.15 L8.45 4.45 7.6 5.2 6.4 6.55 5.95 7.05 6.2 6.65 6.2 6.55 6.4 6.55 6.3 6.3 6.95 5.65 7.3 5.15 8.05 4.55 8.2 4.4 8.35 4.4 Q8.1 4.1 7.85 4.4 L7.4 4.75 7.4 4.9 Q5.6 6.6 4.9 8.85 L4.7 9.4 4.55 9.85 4.7 9.95 4.5 9.95 4.5 10.05 4.65 10.05 4.45 10.25 4.35 10.9 4.25 10.95 Q4.15 11.1 4.35 11.15 L4.4 11.0 4.4 11.35 4.35 11.35 4.35 11.5 4.15 11.5 4.25 11.55 4.1 11.65 4.35 11.7 Q4.15 11.75 4.35 11.9 L4.4 12.05 4.5 12.95 4.55 13.3 4.7 14.4 5.3 14.55 Q5.05 12.65 5.3 10.7 5.2 10.4 5.45 9.95 L5.35 9.9 5.95 8.4 Q7.25 5.5 10.2 4.0 L10.4 3.85 Q10.75 3.85 10.8 3.65 12.45 2.95 14.3 2.9 L14.55 2.9 14.75 2.9 Q16.65 2.95 18.3 3.65 18.35 3.85 18.65 3.85 L18.9 4.0 Q21.8 5.5 23.15 8.4 L23.75 9.9 23.65 9.95 23.8 10.7 Q24.0 12.65 23.8 14.55 24.05 14.4 24.35 14.4 L24.5 13.3 24.55 12.95 24.7 12.05 Q24.55 12.05 24.75 11.9 L24.75 11.7 24.95 11.65 24.85 11.55 24.9 11.5 24.75 11.5 24.75 11.35 24.7 11.35 24.7 11.0 24.75 11.15 24.85 10.95 24.75 10.9 24.6 10.25 24.4 10.05 24.55 10.05 24.55 9.95 24.35 9.95 24.5 9.85 24.35 9.4 24.2 8.85 Q23.45 6.6 21.65 4.9 L21.65 4.75 21.2 4.4 Q21.0 4.1 20.7 4.4 L20.9 4.4 21.05 4.55 M24.2 7.15 L24.2 7.05 24.3 7.1 24.2 7.15 M24.95 8.55 L24.95 8.65 24.9 8.55 24.95 8.55 M25.1 8.45 L25.1 8.5 25.05 8.4 25.1 8.45 M23.15 7.15 L23.15 7.25 23.05 7.15 23.15 7.15 M25.55 10.55 L25.65 10.55 25.75 10.85 25.6 10.8 25.65 10.65 25.55 10.65 25.55 10.8 25.45 10.3 25.55 10.55 M24.85 12.15 L24.75 12.2 24.95 12.55 24.85 13.0 24.75 12.75 24.9 12.65 Q24.7 12.55 24.75 12.2 L24.75 12.05 24.85 12.15 M25.85 11.45 L25.8 11.5 25.75 11.25 25.8 11.25 25.85 11.45 M25.6 11.25 Q25.6 11.6 25.85 11.7 L25.85 11.75 25.75 11.75 Q25.6 11.95 25.75 12.05 L25.8 12.15 Q25.65 12.2 25.75 12.45 L25.85 12.55 25.65 12.65 25.85 13.0 25.8 13.15 25.65 13.15 25.85 13.25 25.6 13.25 25.55 11.35 25.6 11.25 M28.0 6.85 L27.95 6.85 28.0 6.8 28.0 6.85 M29.25 13.25 L29.4 13.25 29.3 13.6 Q29.15 13.8 29.4 13.85 29.05 16.95 27.6 19.7 26.45 21.8 24.5 23.6 L24.4 23.5 24.35 23.6 24.4 23.6 Q22.7 25.15 20.7 26.15 L20.55 26.15 20.15 26.3 20.0 26.3 19.95 26.3 20.0 26.45 19.4 26.6 19.45 26.65 19.3 26.65 18.9 26.75 18.9 26.95 18.85 26.95 18.85 26.75 17.25 27.2 17.25 27.25 17.0 27.2 16.85 27.25 16.25 27.3 15.65 27.4 15.05 27.5 14.55 27.55 14.05 27.5 13.45 27.4 12.85 27.3 12.2 27.25 12.05 27.2 11.85 27.25 11.85 27.2 10.25 26.75 10.25 26.95 10.2 26.95 10.2 26.75 9.8 26.65 9.65 26.65 9.7 26.6 9.1 26.45 9.15 26.3 9.1 26.3 8.9 26.3 8.55 26.15 8.35 26.15 Q6.4 25.15 4.65 23.6 L4.7 23.6 4.65 23.5 4.55 23.6 Q2.65 21.8 1.45 19.7 0.05 16.95 -0.35 13.85 -0.05 13.8 -0.25 13.6 L-0.35 13.25 -0.2 13.25 M25.6 13.55 L25.6 13.4 25.8 13.5 25.6 13.7 Q25.8 13.7 25.6 13.9 L25.55 13.85 25.55 13.55 25.6 13.55 M24.95 13.25 L24.9 14.3 24.85 14.45 24.8 14.3 24.75 14.15 24.85 14.1 24.75 13.05 24.95 13.25 M24.8 14.3 L24.9 14.3 M25.9 14.1 L25.9 14.45 25.85 14.75 25.55 15.55 25.4 16.3 24.95 17.35 24.9 17.6 24.35 18.65 24.2 19.05 23.8 19.45 23.85 19.55 Q23.8 19.55 23.65 19.7 L23.45 20.0 Q23.25 20.05 23.3 20.3 L23.1 20.5 23.15 20.55 22.7 20.6 22.75 20.85 Q22.4 20.85 22.15 21.2 L22.05 21.35 21.9 21.6 21.75 21.55 21.8 21.7 21.65 21.7 21.55 21.75 21.3 21.95 Q21.2 21.95 21.25 22.1 21.0 22.0 20.95 22.25 L20.15 22.65 Q20.0 22.75 20.1 22.8 19.7 22.85 19.4 23.05 17.75 23.9 15.9 23.85 L17.7 23.3 15.15 23.8 14.55 23.75 13.95 23.8 11.4 23.3 Q12.2 23.8 13.15 23.85 11.35 23.9 9.7 23.05 L8.95 22.8 Q9.1 22.75 8.9 22.65 L8.15 22.25 Q8.1 22.0 7.8 22.1 L7.75 21.95 7.55 21.75 7.4 21.7 7.25 21.7 7.3 21.55 7.15 21.6 7.05 21.35 6.95 21.2 Q6.65 20.85 6.3 20.85 L6.4 20.6 5.95 20.55 6.0 20.5 5.75 20.3 5.6 20.0 5.45 19.7 Q5.3 19.55 5.2 19.55 L5.3 19.45 4.9 19.05 4.7 18.65 4.15 17.6 4.1 17.35 3.7 16.3 3.5 15.55 3.25 14.75 3.2 14.45 3.2 14.1 M25.45 14.45 L25.55 14.05 25.55 14.15 25.45 14.85 25.45 15.3 25.3 15.5 25.3 15.75 Q25.1 15.85 25.3 15.95 L25.1 16.1 25.15 16.3 25.1 16.3 24.9 16.55 25.0 16.3 25.15 15.75 25.45 14.75 25.45 14.45 M25.35 14.2 L25.35 14.15 25.4 14.2 25.35 14.2 M23.8 14.55 L23.6 15.8 22.9 17.4 22.7 17.65 22.45 18.15 22.25 18.35 22.15 18.5 22.05 18.95 22.55 18.45 22.7 18.35 22.85 17.95 23.2 17.35 23.3 17.15 23.05 18.2 22.85 18.2 22.9 18.45 22.9 18.65 Q22.7 19.0 22.8 19.25 L23.2 18.85 23.8 16.95 24.35 14.4 M22.05 19.0 L19.05 21.55 18.45 21.85 18.75 21.6 18.8 21.6 18.95 21.4 19.05 21.55 21.0 19.85 21.05 19.75 21.05 19.7 21.35 19.55 21.65 19.25 22.0 18.95 22.05 19.0 M24.85 16.85 L24.85 16.7 24.95 16.75 24.9 16.95 24.5 17.85 24.3 17.85 Q24.35 17.55 24.55 17.4 L24.5 17.35 24.85 16.85 M24.3 18.1 L24.4 17.95 24.35 18.1 24.3 18.1 M24.25 17.95 L24.05 18.2 23.95 18.2 24.25 17.95 M23.95 18.7 L24.3 18.2 24.15 18.6 23.95 18.7 M24.15 20.15 L24.05 20.15 24.05 20.3 Q23.85 20.3 23.75 20.6 L23.75 20.75 23.6 20.75 23.3 21.0 24.85 18.95 24.35 19.8 24.15 20.15 M23.25 19.45 L22.0 20.85 21.8 20.85 23.2 19.45 23.25 19.45 M23.6 19.55 L23.5 19.55 23.6 19.45 23.6 19.55 M23.2 20.05 L23.15 20.15 23.1 20.15 23.2 20.05 M21.2 21.55 L21.2 21.4 21.25 21.4 21.2 21.55 M22.15 22.45 L20.9 23.4 21.0 23.45 20.65 23.7 Q18.85 24.85 16.7 25.2 L15.9 25.25 14.55 25.5 13.15 25.25 12.4 25.2 Q10.25 24.85 8.4 23.7 L8.1 23.45 8.2 23.4 6.95 22.45 6.95 22.4 9.15 23.8 8.45 23.6 Q8.9 24.0 9.5 24.0 L9.5 24.05 9.8 24.25 9.7 24.1 Q11.95 25.05 14.55 25.1 17.15 25.05 19.4 24.1 L19.3 24.25 19.55 24.05 19.55 24.0 Q20.15 24.0 20.6 23.6 L19.95 23.8 22.15 22.4 22.15 22.45 M22.15 22.0 L22.25 21.95 22.25 22.0 22.55 21.95 22.3 22.0 22.25 22.0 22.15 22.0 M20.9 21.8 L20.75 21.8 19.45 22.55 20.7 21.8 20.75 21.8 Q20.95 21.65 21.05 21.6 L20.9 21.8 M23.05 21.3 Q22.85 21.35 22.75 21.7 L22.7 21.65 23.05 21.25 23.05 21.3 M22.55 21.8 L22.7 21.75 22.7 21.8 22.55 21.8 M21.0 22.85 Q21.05 22.65 21.35 22.75 L21.55 22.75 21.05 22.9 21.0 22.85 M18.65 1.75 L17.4 1.35 Q18.35 1.45 19.1 1.9 L18.65 1.75 M17.6 2.45 Q18.05 2.45 18.3 2.85 L18.65 2.9 18.5 3.0 18.05 2.8 17.35 2.55 16.95 2.55 16.9 2.45 16.35 2.35 15.3 2.2 14.85 2.1 14.55 2.1 14.2 2.1 13.75 2.2 12.7 2.35 12.15 2.45 12.1 2.55 11.7 2.55 11.0 2.8 10.55 3.0 10.4 2.9 10.8 2.85 Q11.0 2.45 11.45 2.45 L11.7 2.45 11.85 2.35 14.05 1.9 14.05 1.85 14.55 1.95 15.05 1.85 15.05 1.9 17.25 2.35 17.35 2.45 17.6 2.45 M16.9 3.3 L16.9 3.25 17.0 3.3 16.9 3.3 M19.85 2.2 L20.55 2.55 19.9 2.35 19.85 2.2 M19.5 3.5 Q19.9 3.4 20.2 3.7 L20.2 3.85 20.9 4.15 20.55 4.2 20.2 4.0 20.0 3.85 20.1 3.65 19.55 3.5 19.5 3.5 M19.1 2.75 L19.15 2.8 18.85 2.6 19.1 2.75 M18.15 2.4 L18.05 2.4 18.1 2.35 18.15 2.4 M19.05 3.25 L18.65 3.05 Q19.05 2.95 19.4 3.25 L19.05 3.25 M10.4 1.75 L11.65 1.35 Q10.75 1.45 9.95 1.9 L10.4 1.75 M12.15 3.3 L12.15 3.25 12.05 3.3 12.15 3.3 M11.0 2.4 L10.95 2.35 10.9 2.4 11.0 2.4 M9.9 2.8 L10.25 2.6 9.95 2.75 9.9 2.8 M10.4 3.05 L9.7 3.25 10.0 3.25 10.4 3.05 M9.25 2.2 L8.55 2.55 9.2 2.35 9.25 2.2 M9.55 3.5 Q9.2 3.4 8.85 3.7 L8.85 3.85 8.2 4.15 8.55 4.2 Q8.65 4.0 8.85 4.0 8.8 3.8 9.1 3.85 L8.95 3.65 9.5 3.5 9.55 3.5 M8.0 3.4 Q8.4 3.05 8.8 2.85 8.35 3.05 8.0 3.3 L8.0 3.4 M7.35 3.85 L7.6 3.65 7.4 3.8 7.35 3.85 M4.0 8.4 L3.95 8.45 3.95 8.5 4.0 8.4 M4.1 8.65 L4.15 8.55 4.1 8.55 4.1 8.65 M1.15 6.85 L1.1 6.8 1.1 6.85 1.15 6.85 M3.5 10.55 L3.4 10.55 3.35 10.85 3.45 10.8 3.4 10.65 3.5 10.65 3.5 10.8 3.6 10.3 3.5 10.55 M3.45 11.25 L3.25 11.7 3.25 11.75 3.35 11.75 3.35 12.05 3.3 12.15 3.35 12.45 3.25 12.55 3.4 12.65 Q3.2 12.75 3.25 13.0 L3.3 13.15 3.4 13.15 3.3 13.25 3.45 13.25 3.5 11.35 3.45 11.25 M3.3 11.25 L3.25 11.45 3.3 11.5 3.35 11.25 3.3 11.25 M5.95 7.15 L5.95 7.25 6.05 7.15 5.95 7.15 M4.9 7.05 L4.8 7.1 4.9 7.15 4.9 7.05 M4.35 12.05 L4.25 12.15 4.35 12.2 4.35 12.05 M4.15 12.65 L4.35 12.2 4.1 12.55 4.25 13.0 4.35 12.75 4.15 12.65 M4.25 14.1 L4.35 13.05 4.1 13.25 4.15 14.3 4.3 14.3 4.35 14.15 4.25 14.1 M4.15 14.3 L4.25 14.45 4.3 14.3 M5.3 14.55 L5.5 15.8 6.15 17.4 6.4 17.65 6.6 18.15 6.8 18.35 6.95 18.5 7.05 18.95 6.55 18.45 6.4 18.35 6.2 17.95 5.9 17.35 5.75 17.15 6.05 18.2 6.2 18.2 6.15 18.45 6.15 18.65 Q6.4 19.0 6.25 19.25 L5.9 18.85 5.3 16.95 4.7 14.4 M4.25 16.85 L4.25 16.7 4.1 16.75 4.15 16.95 4.55 17.85 4.8 17.85 4.5 17.4 4.55 17.35 4.25 16.85 M5.1 18.2 L4.85 17.95 5.0 18.2 5.1 18.2 M4.65 17.95 L4.7 18.1 4.8 18.1 4.65 17.95 M5.1 18.7 L4.8 18.2 4.95 18.6 5.1 18.7 M7.05 19.0 Q8.4 20.55 10.0 21.55 L8.1 19.85 8.05 19.75 8.05 19.7 7.7 19.55 7.4 19.25 7.1 18.95 7.05 19.0 M3.45 13.4 L3.3 13.5 3.45 13.7 Q3.3 13.7 3.45 13.9 L3.5 13.85 3.5 13.55 3.45 13.55 3.45 13.4 M3.6 14.45 L3.5 14.05 3.5 14.15 3.6 14.85 3.6 15.3 3.8 15.5 3.8 15.75 3.8 15.95 3.95 16.1 3.9 16.3 3.95 16.3 4.15 16.55 4.05 16.3 3.9 15.75 3.6 14.75 3.6 14.45 M3.7 14.2 L3.75 14.2 3.75 14.15 3.7 14.2 M7.85 21.55 L7.85 21.4 7.8 21.4 7.85 21.55 M7.25 20.85 L5.9 19.45 5.85 19.45 7.1 20.85 7.25 20.85 M8.3 21.8 L8.05 21.6 8.2 21.8 8.3 21.8 8.35 21.8 9.65 22.55 8.3 21.8 M5.9 20.05 L5.95 20.15 6.0 20.15 5.9 20.05 M5.5 19.55 L5.55 19.55 5.5 19.45 5.5 19.55 M5.35 20.6 L5.35 20.75 5.5 20.75 5.75 21.0 4.25 18.95 4.7 19.8 4.95 20.15 5.0 20.15 5.0 20.3 5.35 20.6 M6.05 21.3 L6.3 21.7 6.4 21.65 6.05 21.25 6.05 21.3 M6.55 21.95 L6.75 22.0 6.8 22.0 6.55 21.95 M6.4 21.8 L6.55 21.8 6.4 21.75 6.4 21.8 M6.8 22.0 L6.95 22.0 6.8 21.95 6.8 22.0 M7.7 22.75 L7.55 22.75 8.05 22.9 8.1 22.85 7.7 22.75 M10.35 21.6 L10.3 21.6 10.15 21.4 10.0 21.55 10.6 21.85 10.35 21.6 M10.9 21.8 L10.75 21.8 10.9 22.0 10.9 21.8 M11.25 22.1 Q11.25 21.95 11.1 22.1 L11.35 22.25 11.25 22.1 M11.7 22.25 L11.85 22.25 14.55 22.9 17.25 22.25 17.35 22.25 17.45 22.3 14.55 23.0 11.6 22.3 11.7 22.25 M11.45 22.1 L11.45 22.25 11.6 22.25 11.45 22.1 M12.1 22.0 L12.15 22.15 12.15 22.0 12.1 22.0 M11.0 23.25 L11.35 23.35 10.2 22.85 11.0 23.25 M12.15 24.4 L11.95 24.35 10.8 23.9 14.55 24.7 Q16.45 24.55 18.3 23.9 L17.15 24.35 16.9 24.4 16.9 24.45 15.05 24.7 14.55 24.8 14.05 24.7 12.15 24.45 12.15 24.4 M14.65 24.0 L15.1 24.0 15.1 24.1 14.65 24.0 M13.75 24.25 L14.55 24.1 15.3 24.25 15.3 24.05 15.9 24.15 15.35 24.25 15.45 24.3 14.55 24.35 13.6 24.3 13.7 24.25 13.15 24.15 13.75 24.05 13.75 24.25 M18.35 21.8 L18.15 22.0 18.15 21.8 18.35 21.8 M16.9 22.0 L16.95 22.0 16.9 22.15 16.9 22.0 M17.95 22.1 L17.75 22.25 17.85 22.1 Q17.85 21.95 17.95 22.1 M17.45 22.25 L17.6 22.1 17.6 22.25 17.45 22.25 M17.75 23.35 L18.9 22.85 18.05 23.25 17.75 23.35 M15.75 24.9 L16.95 24.6 18.75 24.0 19.45 23.6 19.65 23.6 19.5 23.8 19.3 23.9 19.15 23.9 19.2 24.0 18.9 24.1 18.85 24.0 18.0 24.4 15.8 24.9 15.75 24.9 Z" fill="none" stroke="#996600" stroke-linecap="round" stroke-linejoin="round" stroke-width="3.0"/>
      <path d="M-0.2 13.25 L-0.35 13.1 -0.25 11.6 -0.15 11.65 -0.15 11.5 -0.2 11.1 0.2 9.45 0.25 9.5 0.2 9.65 0.25 9.65 0.2 9.2 0.3 9.05 0.35 9.05 0.3 9.35 Q0.7 8.0 1.35 6.8 L1.45 6.6 1.85 5.8 3.05 4.2 3.05 4.15 3.25 4.0 Q3.95 3.0 4.95 2.2 5.0 1.95 5.3 1.85 L7.65 0.25 Q9.35 -0.65 11.35 -1.0 L14.55 -1.3 17.75 -1.0 Q19.7 -0.65 21.45 0.25 L23.8 1.85 24.15 2.2 25.85 4.0 26.0 4.15 26.0 4.2 27.2 5.8 27.6 6.6 27.7 6.8 28.75 9.3 25.8 10.4 25.75 10.3 Q25.85 10.05 25.55 9.9 25.3 9.65 25.45 9.4 L25.55 9.65 25.3 9.05 25.4 8.95 25.35 8.9 25.3 8.65 25.1 8.65 Q25.3 8.5 25.1 8.35 L25.1 8.15 25.0 8.2 25.05 8.0 24.9 8.1 24.75 7.6 24.35 6.95 24.15 6.55 23.75 6.05 Q23.45 5.8 23.6 5.65 L23.65 5.75 23.75 5.75 23.6 5.65 23.3 5.6 23.25 5.25 22.85 5.1 23.05 5.0 22.9 4.9 22.55 4.7 22.4 4.45 22.55 4.5 22.55 4.45 22.4 4.45 22.3 4.45 22.25 4.25 22.3 4.2 22.25 4.2 22.25 4.25 22.1 4.25 22.15 4.2 22.15 4.15 22.0 4.25 21.75 3.85 21.5 3.65 21.3 3.6 21.05 3.4 20.5 3.15 19.75 2.65 20.15 2.75 20.1 2.65 19.55 2.45 19.75 2.55 19.7 2.6 19.4 2.45 18.5 2.2 18.45 2.1 17.25 1.8 16.85 1.7 16.45 1.7 15.9 1.55 15.75 1.55 14.55 1.45 13.3 1.55 13.15 1.55 12.6 1.7 12.2 1.7 11.85 1.8 10.6 2.1 10.55 2.2 9.7 2.45 9.35 2.6 9.3 2.55 9.5 2.45 8.95 2.65 8.9 2.75 9.3 2.65 8.6 3.15 8.05 3.4 7.75 3.6 Q7.55 3.6 7.3 3.85 L7.1 4.25 6.95 4.15 6.95 4.2 7.0 4.25 6.8 4.25 6.8 4.2 6.75 4.2 6.8 4.25 6.75 4.45 6.65 4.45 6.55 4.45 6.55 4.5 6.65 4.45 6.55 4.7 Q6.4 4.9 6.15 4.9 L6.05 5.0 6.2 5.1 5.85 5.25 5.75 5.6 5.35 5.75 5.45 5.75 5.5 5.65 5.35 6.05 4.95 6.55 4.7 6.95 Q4.45 7.25 4.35 7.6 L4.15 8.1 4.0 8.0 4.05 8.2 3.95 8.15 3.95 8.35 Q3.8 8.5 3.95 8.65 L3.8 8.65 3.75 8.9 3.7 8.95 3.8 9.05 Q3.5 9.3 3.5 9.65 L3.6 9.4 Q3.8 9.65 3.5 9.9 3.25 10.05 3.35 10.3 L3.15 11.95 3.05 12.8 3.2 14.1 -0.2 13.25 M28.8 9.25 L28.7 9.05 28.75 9.05 28.85 9.2 28.85 9.25 28.8 9.25 M4.7 14.4 L4.55 13.3 4.5 12.95 4.4 12.05 4.35 11.9 Q4.15 11.75 4.35 11.7 L4.1 11.65 4.25 11.55 4.15 11.5 4.35 11.5 4.35 11.35 4.4 11.35 4.4 11.0 4.35 11.15 Q4.15 11.1 4.25 10.95 L4.35 10.9 4.45 10.25 4.65 10.05 4.5 10.05 4.5 9.95 4.7 9.95 4.55 9.85 4.7 9.4 4.9 8.85 Q5.6 6.6 7.4 4.9 L7.4 4.75 7.85 4.4 Q8.1 4.1 8.35 4.4 L8.2 4.4 8.05 4.55 7.3 5.15 6.95 5.65 6.3 6.3 6.4 6.55 6.2 6.55 6.2 6.65 5.95 7.05 6.4 6.55 7.6 5.2 8.45 4.45 8.9 4.15 Q11.15 2.55 14.05 2.4 L14.55 2.4 15.05 2.4 Q17.9 2.55 20.15 4.15 L20.6 4.45 21.5 5.2 22.7 6.55 23.15 7.05 22.85 6.65 22.85 6.55 22.7 6.55 22.75 6.3 22.15 5.65 21.75 5.15 21.05 4.55 20.9 4.4 20.7 4.4 Q21.0 4.1 21.2 4.4 L21.65 4.75 21.65 4.9 Q23.45 6.6 24.2 8.85 L24.35 9.4 24.5 9.85 24.35 9.95 24.55 9.95 24.55 10.05 24.4 10.05 24.6 10.25 24.75 10.7 23.85 11.0 23.8 10.7 23.65 9.95 23.75 9.9 23.15 8.4 Q21.8 5.5 18.9 4.0 L18.65 3.85 Q18.35 3.85 18.3 3.65 16.65 2.95 14.75 2.9 L14.55 2.9 14.3 2.9 Q12.45 2.95 10.8 3.65 10.75 3.85 10.4 3.85 L10.2 4.0 Q7.25 5.5 5.95 8.4 L5.35 9.9 5.45 9.95 Q5.2 10.4 5.3 10.7 5.05 12.65 5.3 14.55 L4.7 14.4 M21.1 3.4 L21.1 3.3 20.25 2.85 21.1 3.4 M20.55 4.2 L20.2 4.0 20.0 3.85 20.1 3.65 19.55 3.5 19.5 3.5 Q19.9 3.4 20.2 3.7 L20.2 3.85 20.9 4.15 20.55 4.2 M24.3 7.1 L24.2 7.15 24.2 7.05 24.3 7.1 M23.15 7.15 L23.05 7.15 23.15 7.25 23.15 7.15 M25.1 8.5 L25.05 8.4 25.1 8.45 25.1 8.5 M24.9 8.55 L24.95 8.55 24.95 8.65 24.9 8.55 M27.95 6.85 L28.0 6.8 28.0 6.85 27.95 6.85 M25.5 10.5 L25.45 10.3 25.5 10.5 M18.1 2.35 L18.15 2.4 18.05 2.4 18.1 2.35 M18.05 2.8 L17.35 2.55 16.95 2.55 16.9 2.45 16.35 2.35 15.3 2.2 14.85 2.1 14.55 2.1 14.2 2.1 13.75 2.2 12.7 2.35 12.15 2.45 12.1 2.55 11.7 2.55 11.0 2.8 10.55 3.0 10.4 2.9 10.8 2.85 Q11.0 2.45 11.45 2.45 L11.7 2.45 11.85 2.35 14.05 1.9 14.05 1.85 14.55 1.95 15.05 1.85 15.05 1.9 17.25 2.35 17.35 2.45 17.6 2.45 Q18.05 2.45 18.3 2.85 L18.65 2.9 18.5 3.0 18.05 2.8 M19.85 2.2 L19.9 2.35 20.55 2.55 19.85 2.2 M19.15 2.8 L18.85 2.6 19.1 2.75 19.15 2.8 M18.65 1.75 L19.1 1.9 Q18.35 1.45 17.4 1.35 L18.65 1.75 M17.0 3.3 L16.9 3.3 16.9 3.25 17.0 3.3 M19.05 3.25 L18.65 3.05 Q19.05 2.95 19.4 3.25 L19.05 3.25 M10.95 2.35 L11.0 2.4 10.9 2.4 10.95 2.35 M11.65 1.35 Q10.75 1.45 9.95 1.9 L10.4 1.75 11.65 1.35 M9.9 2.8 L9.95 2.75 10.25 2.6 9.9 2.8 M12.05 3.3 L12.15 3.25 12.15 3.3 12.05 3.3 M9.25 2.2 L8.55 2.55 9.2 2.35 9.25 2.2 M10.0 3.25 L9.7 3.25 10.4 3.05 10.0 3.25 M9.55 3.5 L9.5 3.5 8.95 3.65 9.1 3.85 Q8.8 3.8 8.85 4.0 8.65 4.0 8.55 4.2 L8.2 4.15 8.85 3.85 8.85 3.7 Q9.2 3.4 9.55 3.5 M7.35 3.85 L7.4 3.8 7.6 3.65 7.35 3.85 M8.0 3.4 Q8.4 3.05 8.8 2.85 8.35 3.05 8.0 3.3 L8.0 3.4 M4.35 12.2 L4.25 12.15 4.35 12.05 4.35 12.2 4.15 12.65 4.35 12.75 4.25 13.0 4.1 12.55 4.35 12.2 M3.35 11.25 L3.3 11.5 3.25 11.45 3.3 11.25 3.35 11.25 M3.45 11.25 L3.5 11.35 3.45 13.25 3.3 13.25 3.4 13.15 3.3 13.15 3.25 13.0 Q3.2 12.75 3.4 12.65 L3.25 12.55 3.35 12.45 3.3 12.15 3.35 12.05 3.35 11.75 3.25 11.75 3.25 11.7 3.45 11.25 M3.4 10.55 L3.5 10.55 3.6 10.3 3.5 10.8 3.5 10.65 3.4 10.65 3.45 10.8 3.35 10.85 3.4 10.55 M1.1 6.85 L1.1 6.8 1.15 6.85 1.1 6.85 M4.1 8.65 L4.1 8.55 4.15 8.55 4.1 8.65 M3.95 8.5 L3.95 8.45 4.0 8.4 3.95 8.5 M4.8 7.1 L4.9 7.05 4.9 7.15 4.8 7.1 M5.95 7.15 L5.95 7.25 6.05 7.15 5.95 7.15 M4.15 14.3 L4.1 13.25 4.35 13.05 4.25 14.1 4.35 14.15 4.3 14.3 4.15 14.3 M3.3 13.5 L3.45 13.4 3.45 13.55 3.5 13.55 3.5 13.85 3.45 13.9 Q3.3 13.7 3.45 13.7 L3.3 13.5" fill="#ffff66" fill-rule="evenodd" stroke="none"/>
      <path d="M28.75 9.3 L28.75 9.35 28.8 9.25 28.85 9.25 Q28.75 9.4 28.8 9.65 L28.85 9.65 28.8 9.5 28.85 9.45 29.25 11.1 29.2 11.5 29.2 11.65 29.3 11.6 29.4 13.1 29.25 13.25 29.4 13.25 29.3 13.6 Q29.15 13.8 29.4 13.85 29.05 16.95 27.6 19.7 26.45 21.8 24.5 23.6 L24.4 23.5 24.35 23.6 24.4 23.6 Q22.7 25.15 20.7 26.15 L20.55 26.15 20.15 26.3 20.0 26.3 19.95 26.3 20.0 26.45 19.4 26.6 19.45 26.65 19.3 26.65 18.9 26.75 18.9 26.95 18.85 26.95 18.85 26.75 17.25 27.2 17.25 27.25 17.0 27.2 16.85 27.25 16.25 27.3 15.65 27.4 15.05 27.5 14.55 27.55 14.05 27.5 13.45 27.4 12.85 27.3 12.2 27.25 12.05 27.2 11.85 27.25 11.85 27.2 10.25 26.75 10.25 26.95 10.2 26.95 10.2 26.75 9.8 26.65 9.65 26.65 9.7 26.6 9.1 26.45 9.15 26.3 9.1 26.3 8.9 26.3 8.55 26.15 8.35 26.15 Q6.4 25.15 4.65 23.6 L4.7 23.6 4.65 23.5 4.55 23.6 Q2.65 21.8 1.45 19.7 0.55 17.9 0.05 15.95 L-0.35 13.85 Q-0.05 13.8 -0.25 13.6 L-0.35 13.25 -0.2 13.25 3.2 14.1 3.2 14.45 3.25 14.75 3.5 15.55 3.55 15.85 3.7 16.3 4.1 17.35 4.15 17.6 4.7 18.65 4.9 19.05 5.3 19.45 5.2 19.55 Q5.3 19.55 5.45 19.7 L5.6 20.0 5.75 20.3 6.0 20.5 5.95 20.55 6.4 20.6 6.3 20.85 Q6.65 20.85 6.95 21.2 L7.05 21.35 7.15 21.6 7.3 21.55 7.25 21.7 7.4 21.7 7.55 21.75 7.75 21.95 7.8 22.1 Q8.1 22.0 8.15 22.25 L8.9 22.65 Q9.1 22.75 8.95 22.8 L9.7 23.05 Q11.35 23.9 13.15 23.85 12.2 23.8 11.4 23.3 L13.95 23.8 14.55 23.75 15.15 23.8 17.7 23.3 15.9 23.85 Q17.75 23.9 19.4 23.05 19.7 22.85 20.1 22.8 20.0 22.75 20.15 22.65 L20.95 22.25 Q21.0 22.0 21.25 22.1 21.2 21.95 21.3 21.95 L21.55 21.75 21.65 21.7 21.8 21.7 21.75 21.55 21.9 21.6 22.05 21.35 22.15 21.2 Q22.4 20.85 22.75 20.85 L22.7 20.6 23.15 20.55 23.1 20.5 23.3 20.3 Q23.25 20.05 23.45 20.0 L23.65 19.7 Q23.8 19.55 23.85 19.55 L23.8 19.45 24.2 19.05 24.35 18.65 24.9 17.6 24.95 17.35 25.4 16.3 25.55 15.55 25.85 14.75 25.9 14.45 25.9 14.1 26.0 12.8 25.95 11.95 25.8 10.4 28.75 9.3 M4.7 14.4 L5.3 14.55 5.5 15.65 5.5 15.8 6.15 17.4 6.4 17.65 6.6 18.15 6.8 18.35 6.95 18.5 7.05 18.95 6.55 18.45 6.4 18.35 6.2 17.95 5.9 17.35 5.75 17.15 6.05 18.2 6.2 18.2 6.15 18.45 6.15 18.65 Q6.4 19.0 6.25 19.25 L5.9 18.85 5.3 16.95 5.0 15.7 4.7 14.4 M23.85 11.0 L24.75 10.7 24.75 10.9 24.85 10.95 24.75 11.15 24.7 11.0 24.7 11.35 24.75 11.35 24.75 11.5 24.9 11.5 24.85 11.55 24.95 11.65 24.75 11.7 24.75 11.9 Q24.55 12.05 24.7 12.05 L24.55 12.95 24.5 13.3 24.35 14.4 23.8 16.95 23.2 18.85 22.8 19.25 Q22.7 19.0 22.9 18.65 L22.9 18.45 Q23.05 18.35 22.85 18.2 L23.05 18.2 23.3 17.15 23.2 17.35 22.85 17.95 22.7 18.35 22.55 18.45 22.05 18.95 22.15 18.5 22.25 18.35 22.45 18.15 22.7 17.65 22.9 17.4 23.6 15.8 23.8 14.55 23.85 11.0 M24.75 12.2 L24.95 12.55 24.85 13.0 24.75 12.75 24.9 12.65 Q24.7 12.55 24.75 12.2 L24.75 12.05 24.85 12.15 24.75 12.2 M25.5 10.5 L25.55 10.55 25.65 10.55 25.75 10.85 25.6 10.8 25.65 10.65 25.55 10.65 25.55 10.8 25.5 10.5 M25.8 11.5 L25.75 11.25 25.8 11.25 25.85 11.45 25.8 11.5 M25.6 11.25 Q25.6 11.6 25.85 11.7 L25.85 11.75 25.75 11.75 Q25.6 11.95 25.75 12.05 L25.8 12.15 Q25.65 12.2 25.75 12.45 L25.85 12.55 25.65 12.65 25.85 13.0 25.8 13.15 25.65 13.15 25.85 13.25 25.6 13.25 25.55 11.35 25.6 11.25 M25.55 13.85 L25.55 13.55 25.6 13.55 25.6 13.4 25.8 13.5 25.6 13.7 Q25.8 13.7 25.6 13.9 L25.55 13.85 M25.35 14.2 L25.35 14.15 25.4 14.2 25.35 14.2 M25.55 14.05 L25.55 14.15 25.45 14.85 25.45 15.3 25.3 15.5 25.3 15.75 Q25.1 15.85 25.3 15.95 L25.1 16.1 25.15 16.3 25.1 16.3 24.9 16.55 25.0 16.3 25.15 15.75 25.45 14.75 25.45 14.45 25.55 14.05 M24.95 13.25 L24.9 14.3 24.85 14.45 24.8 14.3 24.75 14.15 24.85 14.1 24.75 13.05 24.95 13.25 M24.85 16.7 L24.95 16.75 24.9 16.95 24.5 17.85 24.3 17.85 Q24.35 17.55 24.55 17.4 L24.5 17.35 24.85 16.85 24.85 16.7 M24.05 18.2 L23.95 18.2 24.25 17.95 24.05 18.2 M24.3 18.1 L24.4 17.95 24.35 18.1 24.3 18.1 M24.35 19.8 L24.85 18.95 23.3 21.0 23.6 20.75 23.75 20.75 23.75 20.6 Q23.85 20.3 24.05 20.3 L24.05 20.15 24.15 20.15 24.35 19.8 M23.5 19.55 L23.6 19.45 23.6 19.55 23.5 19.55 M23.25 19.45 L22.0 20.85 21.8 20.85 23.2 19.45 23.25 19.45 M23.1 20.15 L23.2 20.05 23.15 20.15 23.1 20.15 M23.05 21.3 L23.05 21.25 22.7 21.65 22.75 21.7 Q22.85 21.35 23.05 21.3 M23.95 18.7 L24.3 18.2 24.15 18.6 23.95 18.7 M22.05 19.0 L19.05 21.55 18.45 21.85 18.75 21.6 18.8 21.6 18.95 21.4 19.05 21.55 21.0 19.85 21.05 19.75 21.05 19.7 21.35 19.55 21.65 19.25 22.0 18.95 22.05 19.0 M21.25 21.4 L21.2 21.55 21.2 21.4 21.25 21.4 M22.15 22.45 L22.15 22.4 19.95 23.8 20.6 23.6 Q20.15 24.0 19.55 24.0 L19.55 24.05 19.3 24.25 19.4 24.1 Q17.15 25.05 14.55 25.1 11.95 25.05 9.7 24.1 L9.8 24.25 9.5 24.05 9.5 24.0 Q8.9 24.0 8.45 23.6 L9.15 23.8 6.95 22.4 6.95 22.45 8.2 23.4 8.1 23.45 8.4 23.7 Q10.25 24.85 12.4 25.2 L13.15 25.25 14.55 25.5 15.9 25.25 16.7 25.2 Q18.85 24.85 20.65 23.7 L21.0 23.45 20.9 23.4 22.15 22.45 M22.25 22.0 L22.25 21.95 22.15 22.0 22.25 22.0 22.3 22.0 22.55 21.95 22.25 22.0 M22.55 21.8 L22.7 21.8 22.7 21.75 22.55 21.8 M20.75 21.8 L19.45 22.55 20.7 21.8 20.75 21.8 Q20.95 21.65 21.05 21.6 L20.9 21.8 20.75 21.8 M21.35 22.75 Q21.05 22.65 21.0 22.85 L21.05 22.9 21.55 22.75 21.35 22.75 M4.15 14.3 L4.3 14.3 4.25 14.45 4.15 14.3 M4.7 18.1 L4.65 17.95 4.8 18.1 4.7 18.1 M5.0 18.2 L4.85 17.95 5.1 18.2 5.0 18.2 M4.25 16.7 L4.25 16.85 4.55 17.35 4.5 17.4 4.8 17.85 4.55 17.85 4.15 16.95 4.1 16.75 4.25 16.7 M3.5 14.05 L3.6 14.45 3.6 14.75 3.9 15.75 3.9 15.8 4.05 16.3 4.15 16.55 3.95 16.3 3.9 16.3 3.95 16.1 3.8 15.95 3.85 15.8 3.8 15.75 3.8 15.5 3.6 15.3 3.6 14.85 3.5 14.15 3.5 14.05 M3.7 14.2 L3.75 14.15 3.75 14.2 3.7 14.2 M5.0 20.15 L5.0 20.3 5.35 20.6 5.35 20.75 5.5 20.75 5.75 21.0 4.25 18.95 4.7 19.8 4.95 20.15 5.0 20.15 M6.0 20.15 L5.95 20.15 5.9 20.05 6.0 20.15 M5.85 19.45 L5.9 19.45 7.25 20.85 7.1 20.85 5.85 19.45 M5.5 19.45 L5.55 19.55 5.5 19.55 5.5 19.45 M7.8 21.4 L7.85 21.4 7.85 21.55 7.8 21.4 M7.7 19.55 L8.05 19.7 8.05 19.75 8.1 19.85 10.0 21.55 Q8.4 20.55 7.05 19.0 L7.1 18.95 7.4 19.25 7.7 19.55 M6.05 21.3 L6.3 21.7 6.4 21.65 6.05 21.25 6.05 21.3 M6.8 22.0 L6.95 22.0 6.8 21.95 6.8 22.0 6.55 21.95 6.75 22.0 6.8 22.0 M6.55 21.8 L6.4 21.75 6.4 21.8 6.55 21.8 M8.3 21.8 L8.2 21.8 8.05 21.6 8.3 21.8 8.35 21.8 9.65 22.55 8.3 21.8 M7.7 22.75 L7.55 22.75 8.05 22.9 8.1 22.85 7.7 22.75 M11.6 22.25 L11.45 22.25 11.45 22.1 11.6 22.25 M10.3 21.6 L10.35 21.6 10.6 21.85 10.0 21.55 10.15 21.4 10.3 21.6 M5.1 18.7 L4.95 18.6 4.8 18.2 5.1 18.7 M11.7 22.25 L11.85 22.25 14.55 22.9 17.25 22.25 17.35 22.25 17.45 22.3 14.55 23.0 11.6 22.3 11.7 22.25 M15.1 24.1 L15.1 24.0 14.65 24.0 15.1 24.1 M13.7 24.25 L13.6 24.3 15.45 24.3 15.35 24.25 15.9 24.15 15.3 24.05 15.3 24.25 14.55 24.1 13.75 24.25 13.75 24.05 13.15 24.15 13.7 24.25 M12.15 24.4 L12.15 24.45 14.05 24.7 14.55 24.8 15.05 24.7 16.9 24.45 16.9 24.4 17.15 24.35 18.3 23.9 Q16.45 24.55 14.55 24.7 L10.8 23.9 11.95 24.35 12.15 24.4 M11.35 23.35 L11.0 23.25 10.2 22.85 11.35 23.35 M11.1 22.1 Q11.25 21.95 11.25 22.1 L11.35 22.25 11.1 22.1 M10.75 21.8 L10.9 21.8 10.9 22.0 10.75 21.8 M12.15 22.15 L12.1 22.0 12.15 22.0 12.15 22.15 M16.9 22.15 L16.9 22.0 16.95 22.0 16.9 22.15 M17.45 22.25 L17.6 22.1 17.6 22.25 17.45 22.25 M18.15 21.8 L18.35 21.8 18.15 22.0 18.15 21.8 M17.75 22.25 L17.85 22.1 Q17.85 21.95 17.95 22.1 L17.75 22.25 M17.75 23.35 L18.9 22.85 18.05 23.25 17.75 23.35 M18.85 24.0 L18.9 24.1 19.2 24.0 19.15 23.9 19.3 23.9 19.5 23.8 19.65 23.6 19.45 23.6 18.75 24.0 16.95 24.6 15.75 24.9 15.8 24.9 18.0 24.4 18.85 24.0" fill="#ff9933" fill-rule="evenodd" stroke="none"/>
      <path d="M19.85 6.1 L19.7 7.0 19.6 7.45 Q20.4 6.95 21.35 6.95 L22.25 7.1 23.0 7.1 Q24.85 7.7 24.85 9.55 L24.75 13.05 24.7 14.55 24.65 16.45 24.65 18.1 24.55 21.7 Q24.3 23.55 22.6 23.55 21.55 23.45 21.1 22.55 L16.1 22.9 15.05 23.1 13.9 23.35 Q10.35 23.35 10.55 19.15 L10.65 14.3 10.75 11.85 10.8 9.45 10.35 7.15 9.6 9.55 9.25 10.6 9.4 11.85 9.6 19.5 Q9.6 23.65 7.65 23.65 5.1 23.7 5.4 19.85 5.4 16.85 5.75 13.85 L4.65 13.55 4.0 13.15 Q6.25 8.85 6.25 6.05 6.25 5.75 5.9 5.4 5.45 4.9 5.55 4.35 L5.55 4.0 5.65 3.55 Q6.15 3.75 7.05 3.25 7.85 2.7 8.55 2.7 10.75 2.8 10.8 5.0 L10.45 6.85 Q14.05 7.25 14.15 9.45 L14.05 12.55 14.05 12.8 14.05 16.15 13.95 16.45 Q13.9 18.6 14.8 18.5 L15.3 18.5 15.3 16.25 15.35 12.85 Q15.3 7.9 14.95 6.55 L14.35 5.95 Q13.5 5.3 13.5 4.3 L13.5 3.65 Q14.05 3.9 15.15 3.35 16.25 2.8 17.1 2.7 19.95 2.95 20.15 5.0 L19.85 6.1 M10.75 11.85 L13.05 12.3 14.05 12.55 M15.35 12.85 L18.9 13.65 19.35 13.75 19.35 13.15 Q19.35 10.45 19.6 7.7 L19.8 7.7 Q20.85 7.6 20.75 9.0 L20.75 9.2 20.7 13.3 20.7 13.95 24.7 14.55 M19.35 13.75 L19.4 18.25 19.95 18.25 20.6 18.2 20.7 17.45 20.7 13.95 M4.65 13.55 L6.75 12.4 Q8.05 11.95 9.4 11.85" fill="none" stroke="#104258" stroke-linecap="round" stroke-linejoin="round" stroke-width="2.0"/>
      <path d="M15.35 13.25 L19.35 12.2 19.35 13.15 19.35 13.75 19.4 18.25 19.95 18.25 20.6 18.2 20.7 17.45 20.7 13.95 20.7 13.3 20.75 11.85 21.1 11.75 24.8 10.8 24.75 13.05 24.7 14.55 24.65 16.45 24.65 18.1 24.55 21.7 Q24.3 23.55 22.6 23.55 21.55 23.45 21.1 22.55 L16.1 22.9 15.05 23.1 13.9 23.35 Q10.35 23.35 10.55 19.15 L10.65 14.3 10.65 14.25 14.05 13.6 14.05 16.15 13.95 16.45 Q13.9 18.6 14.8 18.5 L15.3 18.5 15.3 16.25 15.35 13.25 M9.5 14.4 L9.6 19.5 Q9.6 23.65 7.65 23.65 5.1 23.7 5.4 19.85 L5.65 14.85 7.75 14.6 9.5 14.4" fill="url(#gradient0)" fill-rule="evenodd" stroke="none"/>
      <path d="M15.35 13.25 L15.35 12.85 Q15.3 7.9 14.95 6.55 L14.35 5.95 Q13.5 5.3 13.5 4.3 L13.5 3.65 Q14.05 3.9 15.15 3.35 16.25 2.8 17.1 2.7 19.95 2.95 20.15 5.0 L19.85 6.1 19.7 7.0 19.6 7.45 Q20.4 6.95 21.35 6.95 L22.25 7.1 23.0 7.1 Q24.85 7.7 24.85 9.55 L24.8 10.8 21.1 11.75 20.75 11.85 20.75 9.2 20.75 9.0 Q20.85 7.6 19.8 7.7 L19.6 7.7 Q19.4 9.95 19.35 12.2 L15.35 13.25 M10.65 14.25 L10.75 11.85 10.8 9.45 10.35 7.15 9.6 9.55 9.25 10.6 9.4 11.85 9.5 14.4 7.75 14.6 5.65 14.85 5.75 13.85 4.65 13.55 4.0 13.15 Q6.25 8.85 6.25 6.05 6.25 5.75 5.9 5.4 5.45 4.9 5.55 4.35 L5.55 4.0 5.65 3.55 Q6.15 3.75 7.05 3.25 7.85 2.7 8.55 2.7 10.75 2.8 10.8 5.0 L10.45 6.85 Q14.05 7.25 14.15 9.45 L14.05 12.55 14.05 12.8 14.05 13.6 10.65 14.25" fill="url(#gradient1)" fill-rule="evenodd" stroke="none"/>
    </g>
    <linearGradient gradientTransform="matrix(0.0, 0.0129, -0.0071, 0.0, 13.15, 14.5)" gradientUnits="userSpaceOnUse" id="gradient0" spreadMethod="pad" x1="-819.2" x2="819.2">
      <stop offset="0.00784313725490196" stop-color="#009966"/>
      <stop offset="1.0" stop-color="#006666"/>
    </linearGradient>
    <linearGradient gradientTransform="matrix(0.0, 0.0129, -0.0071, 0.0, 13.15, 14.5)" gradientUnits="userSpaceOnUse" id="gradient1" spreadMethod="pad" x1="-819.2" x2="819.2">
      <stop offset="0.00784313725490196" stop-color="#0fb67a"/>
      <stop offset="1.0" stop-color="#006666"/>
    </linearGradient>
  </defs>
</svg>
